PathFileType	4	(X/Y/Z)	F:\MotionCapture\20160217\3\Generated_files\EMG_test01-Dynamic.trc
DataRate	CameraRate	NumFrames	NumMarkers	Units	OrigDataRate	OrigDataStartFrame	OrigNumFrames
120.00	120.00	       4	39	mm	120.00	614	       701
Frame#	Time	Top.Head			Front.Head			Rear.Head			R.Shoulder			R.Offset			R.Elbow			R.Wrist			L.Shoulder			L.Elbow			L.Wrist			R.ASIS			L.ASIS			V.Sacral			R.Thigh			R.Knee			R.Shank			R.Ankle			R.Heel			R.Toe			L.Thigh			L.Knee			L.Shank			L.Ankle			L.Heel			L.Toe			R1			R2			R3			R4			R5			R6			R7			L1			L2			L3			L4			L5			L6			L7			V_Mid_ASIS			V_Pelvis_Origin			V_R.Hip_JC			V_L.Hip_JC			V_R.Knee_JC			V_L.Knee_JC			V_R.Ankle_JC			V_L.Ankle_JC			V_Mid_Hip			V_Mid_Shoulder			V_R.Hand			V_L.Hand			V_R.Toe_Offset_Static			V_L.Toe_Offset_Static			V_R.Toe_Offset			V_L.Toe_Offset			
		X1	Y1	Z1	X2	Y2	Z2	X3	Y3	Z3	X4	Y4	Z4	X5	Y5	Z5	X6	Y6	Z6	X7	Y7	Z7	X8	Y8	Z8	X9	Y9	Z9	X10	Y10	Z10	X11	Y11	Z11	X12	Y12	Z12	X13	Y13	Z13	X14	Y14	Z14	X15	Y15	Z15	X16	Y16	Z16	X17	Y17	Z17	X18	Y18	Z18	X19	Y19	Z19	X20	Y20	Z20	X21	Y21	Z21	X22	Y22	Z22	X23	Y23	Z23	X24	Y24	Z24	X25	Y25	Z25	X26	Y26	Z26	X27	Y27	Z27	X28	Y28	Z28	X29	Y29	Z29	X30	Y30	Z30	X31	Y31	Z31	X32	Y32	Z32	X33	Y33	Z33	X34	Y34	Z34	X35	Y35	Z35	X36	Y36	Z36	X37	Y37	Z37	X38	Y38	Z38	X39	Y39	Z39	

614	5.108	2045.15405	40.91244	1695.75720	2160.58789	40.98872	1619.05835	1940.63733	52.08303	1621.53784	1989.00659	-143.56670	1377.20007	1878.05786	142.06723	1244.46533	1888.17480	-221.80121	1066.71606	1927.97754	-231.74585	805.32574	2040.97339	260.66937	1397.57117	2119.06445	395.79919	1100.52222	2353.08862	355.08585	1001.36902	2101.98633	-62.42111	926.52570	2086.50098	225.25935	907.79858	1869.61719	65.21814	906.10974	2241.52686	-15.25803	603.34949	2221.09741	-52.90868	477.84839	2239.67773	27.70803	244.33162	2204.49097	-41.59085	74.92149	2136.43433	19.58079	46.36776	2350.46240	-26.60787	50.39424	2089.84033	226.20915	574.72369	1944.97900	267.69232	437.01035	1865.90491	195.43465	312.92960	1605.52856	224.27055	202.76430	1576.46912	158.42169	247.15482	1640.17944	223.68849	64.46159	2393.15210	-5.19427	45.10189	2355.36157	13.15305	50.95296	2257.35327	49.94453	59.38163	2182.34253	51.57705	45.59613	2167.69800	-22.78692	45.52306	2240.95337	-50.25215	41.28832	2307.59424	-66.77744	42.74309	1666.56091	200.50536	37.63136	1654.96729	187.68901	59.56020	1640.93872	146.13707	142.06654	1602.15674	134.05098	212.10298	1574.94421	200.51112	223.82895	1587.93298	237.71352	150.00281	1610.22681	249.47888	91.60690																																																	2589.44434	88.37845	-81.49617	
615	5.117	2057.09106	38.78975	1697.81116	2172.35522	39.25113	1620.73499	1952.04199	50.06736	1623.02100	2000.81934	-144.43126	1379.49585	1889.44312	140.87872	1246.40430	1903.39697	-224.44795	1067.49707	1948.61218	-234.16899	807.00354	2052.64551	259.11041	1399.22144	2126.35889	393.95349	1100.80408	2359.06226	353.23578	996.67450	2113.52026	-65.11272	928.46857	2098.84717	223.73653	909.27466	1882.34595	64.06765	907.26471	2250.49512	-16.16984	602.42908	2228.31396	-54.21765	477.44699	2243.32251	26.88886	244.14284	2204.72607	-41.57321	75.85753	2136.49048	19.78316	46.38116	2350.90820	-26.30225	50.41345	2108.34058	224.21922	576.81122	1968.24426	266.33313	435.61597	1887.13647	194.38669	314.64139	1624.93433	223.54939	210.90973	1599.04333	155.93619	256.78418	1649.88196	224.41812	70.12975	2393.34155	-5.57576	43.51830	2355.50610	13.74535	50.56042	2257.33740	50.12552	59.17465	2182.39697	51.60910	45.54761	2167.68848	-22.75666	45.52014	2241.08765	-49.86543	41.47205	2307.72925	-66.93536	42.58325	1673.33435	202.61124	37.73512	1664.71790	189.09787	62.58068	1657.13916	145.50552	147.56087	1622.90405	131.78880	220.10384	1595.63965	198.19627	234.06967	1603.71667	235.86554	160.20103	1622.25647	249.24361	100.53032																																																	2451.87671	106.56147	-50.54715	
616	5.125	2068.73682	37.12469	1699.84717	2183.94971	37.54401	1622.68982	1963.83826	48.69320	1625.85034	2012.23804	-146.36659	1381.46533	1900.98425	139.79630	1249.09900	1918.92017	-227.14609	1068.34766	1968.90112	-236.05688	808.95850	2064.14746	257.68344	1401.52100	2134.54565	392.30444	1101.40466	2364.59375	351.69818	992.02612	2124.71143	-67.40287	930.38147	2110.80054	221.41365	911.14569	1894.32727	63.03504	908.58557	2258.98633	-16.84134	601.82544	2234.73071	-54.81031	477.18591	2246.38818	26.23216	243.43811	2203.72168	-41.97816	74.90054	2136.40405	19.89304	46.54805	2351.08276	-26.69628	50.09505	2127.29688	221.47049	579.68835	1991.70276	265.80292	435.36777	1908.73291	193.24658	316.23074	1644.22791	221.52469	218.89145	1622.06018	152.83142	264.78931	1661.26746	225.88625	76.17073	2393.90210	-5.31400	44.37076	2355.79077	13.35269	50.53417	2257.42651	50.01812	58.99124	2182.49487	51.78620	45.74531	2167.65308	-22.70789	45.63007	2241.14795	-49.85391	41.50473	2307.72510	-67.20802	42.56561	1681.80444	205.11234	37.60956	1676.78333	190.76674	66.88585	1674.42041	144.56067	152.55598	1645.12219	129.24600	226.63805	1616.76758	194.88087	242.24831	1620.68506	233.49182	169.63820	1635.92798	248.75563	110.07047	
617	5.133	2080.19507	35.46556	1701.79785	2195.52954	36.02724	1624.65540	1975.02380	46.75142	1627.84497	2024.67432	-147.25424	1383.99304	1913.15552	138.90457	1251.16370	1934.28540	-229.73846	1069.27515	1990.01147	-239.13562	811.48724	2075.44873	256.55582	1403.17969	2141.72266	390.11841	1102.42554	2369.75586	350.34378	987.53363	2135.87671	-69.28455	932.07928	2122.52271	219.40005	913.30811	1904.94507	61.48207	910.87457	2266.48096	-17.25874	601.05902	2240.43433	-56.54171	476.62897	2249.39746	25.14420	242.87950	2203.84375	-41.96191	74.83014	2136.46826	19.71322	46.66204	2351.30640	-26.84221	49.93105	2145.79248	217.99628	582.80280	2014.78369	264.75479	435.80563	1930.69543	191.49402	318.29370	1664.95508	219.55934	225.75739	1646.24194	149.15428	271.60052	1676.28137	226.93930	83.78398	2394.20605	-5.45108	44.20411	2355.95801	13.22685	50.45112	2257.65942	50.14064	59.11246	2182.55371	51.73982	45.78143	2167.65845	-22.73187	45.82829	2241.16919	-50.25269	41.38003	2307.73633	-67.41208	42.42368	1693.37292	211.27086	43.02042	1690.76306	193.19096	71.31663	1693.34961	143.42097	156.69861	1667.86353	126.61645	231.56587	1638.98889	191.23112	249.86507	1639.06775	231.14389	178.16812	1652.00488	248.42886	118.41900	
